<?xml version="1.0" encoding="UTF-8" standalone="no"?>
<svg width="250.119mm" height="143.933mm"
 viewBox="0 0 709 408"
 xmlns="http://www.w3.org/2000/svg" xmlns:xlink="http://www.w3.org/1999/xlink"  version="1.2" baseProfile="tiny">
<title>Qt SVG Document</title>
<desc>MATLAB, The MathWorks, Inc. Version 25.1.0.2973910 R2025a Update 1</desc>
<defs>
</defs>
<g fill="none" stroke="black" stroke-width="1" fill-rule="evenodd" stroke-linecap="square" stroke-linejoin="bevel" >

<g fill="#000000" fill-opacity="1" stroke="none" transform="matrix(0.731862,0,0,0.707124,-65.6849,-10.7509)"
font-family="MS Shell Dlg 2" font-size="8.25" font-weight="400" font-style="normal" 
>
<path vector-effect="none" fill-rule="evenodd" d="M88,14 L1058,14 L1058,592 L88,592 L88,14"/>
</g>

<g fill="#121212" fill-opacity="1" stroke="none" transform="matrix(7.31862e-05,0,0,7.07124e-05,-65.6849,-10.7509)"
font-family="MS Shell Dlg 2" font-size="8.25" font-weight="400" font-style="normal" 
>
<path vector-effect="none" fill-rule="evenodd" d="M1.52e+06,450000 L1.52e+06,5.33e+06 L1.055e+07,5.33e+06 L1.055e+07,450000 L1.52e+06,450000"/>
</g>

<g fill="#ffffff" fill-opacity="0.25098" stroke="#ffffff" stroke-opacity="0.25098" stroke-width="0.666667" stroke-linecap="butt" stroke-linejoin="round" transform="matrix(0.731862,0,0,0.707124,-65.6849,-10.7509)"
font-family="MS Shell Dlg 2" font-size="8.25" font-weight="400" font-style="normal" 
>
<polyline fill="none" vector-effect="none" points="260.757,45 260.757,533 " />
<polyline fill="none" vector-effect="none" points="441.952,45 441.952,533 " />
<polyline fill="none" vector-effect="none" points="623.148,45 623.148,533 " />
<polyline fill="none" vector-effect="none" points="804.442,45 804.442,533 " />
<polyline fill="none" vector-effect="none" points="985.638,45 985.638,533 " />
<polyline fill="none" vector-effect="none" points="152,533 1055,533 " />
<polyline fill="none" vector-effect="none" points="152,451.667 1055,451.667 " />
<polyline fill="none" vector-effect="none" points="152,370.333 1055,370.333 " />
<polyline fill="none" vector-effect="none" points="152,289 1055,289 " />
<polyline fill="none" vector-effect="none" points="152,207.667 1055,207.667 " />
<polyline fill="none" vector-effect="none" points="152,126.333 1055,126.333 " />
<polyline fill="none" vector-effect="none" points="152,45 1055,45 " />
</g>

<g fill="#d9d9d9" fill-opacity="1" stroke="#d9d9d9" stroke-opacity="1" stroke-width="0.666667" stroke-linecap="square" stroke-linejoin="round" transform="matrix(0.731862,0,0,0.707124,-65.6849,-10.7509)"
font-family="MS Shell Dlg 2" font-size="8.25" font-weight="400" font-style="normal" 
>
<polyline fill="none" vector-effect="none" points="152,533 1055,533 " />
<polyline fill="none" vector-effect="none" points="152,45 1055,45 " />
<polyline fill="none" vector-effect="none" points="260.757,533 260.757,523.97 " />
<polyline fill="none" vector-effect="none" points="441.952,533 441.952,523.97 " />
<polyline fill="none" vector-effect="none" points="623.148,533 623.148,523.97 " />
<polyline fill="none" vector-effect="none" points="804.442,533 804.442,523.97 " />
<polyline fill="none" vector-effect="none" points="985.638,533 985.638,523.97 " />
<polyline fill="none" vector-effect="none" points="260.757,45 260.757,54.03 " />
<polyline fill="none" vector-effect="none" points="441.952,45 441.952,54.03 " />
<polyline fill="none" vector-effect="none" points="623.148,45 623.148,54.03 " />
<polyline fill="none" vector-effect="none" points="804.442,45 804.442,54.03 " />
<polyline fill="none" vector-effect="none" points="985.638,45 985.638,54.03 " />
</g>

<g fill="#d9d9d9" fill-opacity="1" stroke="#d9d9d9" stroke-opacity="1" stroke-width="1" stroke-linecap="square" stroke-linejoin="bevel" transform="matrix(0.731862,0,0,0.707124,107.588,385.38)"
font-family="Helvetica" font-size="22" font-weight="400" font-style="normal" 
>
<text fill="#d9d9d9" fill-opacity="1" stroke="none" xml:space="preserve" x="0" y="0" font-family="Helvetica" font-size="22" font-weight="400" font-style="normal" 
 >1990</text>
</g>

<g fill="#d9d9d9" fill-opacity="1" stroke="#d9d9d9" stroke-opacity="1" stroke-width="1" stroke-linecap="square" stroke-linejoin="bevel" transform="matrix(0.731862,0,0,0.707124,240.199,385.38)"
font-family="Helvetica" font-size="22" font-weight="400" font-style="normal" 
>
<text fill="#d9d9d9" fill-opacity="1" stroke="none" xml:space="preserve" x="0" y="0" font-family="Helvetica" font-size="22" font-weight="400" font-style="normal" 
 >1995</text>
</g>

<g fill="#d9d9d9" fill-opacity="1" stroke="#d9d9d9" stroke-opacity="1" stroke-width="1" stroke-linecap="square" stroke-linejoin="bevel" transform="matrix(0.731862,0,0,0.707124,372.809,385.38)"
font-family="Helvetica" font-size="22" font-weight="400" font-style="normal" 
>
<text fill="#d9d9d9" fill-opacity="1" stroke="none" xml:space="preserve" x="0" y="0" font-family="Helvetica" font-size="22" font-weight="400" font-style="normal" 
 >2000</text>
</g>

<g fill="#d9d9d9" fill-opacity="1" stroke="#d9d9d9" stroke-opacity="1" stroke-width="1" stroke-linecap="square" stroke-linejoin="bevel" transform="matrix(0.731862,0,0,0.707124,505.491,385.38)"
font-family="Helvetica" font-size="22" font-weight="400" font-style="normal" 
>
<text fill="#d9d9d9" fill-opacity="1" stroke="none" xml:space="preserve" x="0" y="0" font-family="Helvetica" font-size="22" font-weight="400" font-style="normal" 
 >2005</text>
</g>

<g fill="#d9d9d9" fill-opacity="1" stroke="#d9d9d9" stroke-opacity="1" stroke-width="1" stroke-linecap="square" stroke-linejoin="bevel" transform="matrix(0.731862,0,0,0.707124,638.101,385.38)"
font-family="Helvetica" font-size="22" font-weight="400" font-style="normal" 
>
<text fill="#d9d9d9" fill-opacity="1" stroke="none" xml:space="preserve" x="0" y="0" font-family="Helvetica" font-size="22" font-weight="400" font-style="normal" 
 >2010</text>
</g>

<g fill="#d9d9d9" fill-opacity="1" stroke="#d9d9d9" stroke-opacity="1" stroke-width="1" stroke-linecap="square" stroke-linejoin="bevel" transform="matrix(0.731862,0,0,0.707124,357.697,406.122)"
font-family="Helvetica" font-size="24" font-weight="400" font-style="normal" 
>
<text fill="#d9d9d9" fill-opacity="1" stroke="none" xml:space="preserve" x="0" y="0" font-family="Helvetica" font-size="24" font-weight="400" font-style="normal" 
 >Date</text>
</g>

<g fill="#d9d9d9" fill-opacity="1" stroke="#d9d9d9" stroke-opacity="1" stroke-width="1" stroke-linecap="square" stroke-linejoin="bevel" transform="matrix(0,-0.707124,0.731862,0,13.9417,227.196)"
font-family="Helvetica" font-size="24" font-weight="400" font-style="normal" 
>
<text fill="#d9d9d9" fill-opacity="1" stroke="none" xml:space="preserve" x="0" y="0" font-family="Helvetica" font-size="24" font-weight="400" font-style="normal" 
 >Yield (%)</text>
</g>

<g fill="#d9d9d9" fill-opacity="1" stroke="#d9d9d9" stroke-opacity="1" stroke-width="0.666667" stroke-linecap="square" stroke-linejoin="round" transform="matrix(0.731862,0,0,0.707124,-65.6849,-10.7509)"
font-family="Helvetica" font-size="24" font-weight="400" font-style="normal" 
>
<polyline fill="none" vector-effect="none" points="152,533 152,45 " />
<polyline fill="none" vector-effect="none" points="1055,533 1055,45 " />
<polyline fill="none" vector-effect="none" points="152,533 161.03,533 " />
<polyline fill="none" vector-effect="none" points="1045.97,533 1055,533 " />
<polyline fill="none" vector-effect="none" points="152,451.667 161.03,451.667 " />
<polyline fill="none" vector-effect="none" points="1045.97,451.667 1055,451.667 " />
<polyline fill="none" vector-effect="none" points="152,370.333 161.03,370.333 " />
<polyline fill="none" vector-effect="none" points="1045.97,370.333 1055,370.333 " />
<polyline fill="none" vector-effect="none" points="152,289 161.03,289 " />
<polyline fill="none" vector-effect="none" points="1045.97,289 1055,289 " />
<polyline fill="none" vector-effect="none" points="152,207.667 161.03,207.667 " />
<polyline fill="none" vector-effect="none" points="1045.97,207.667 1055,207.667 " />
<polyline fill="none" vector-effect="none" points="152,126.333 161.03,126.333 " />
<polyline fill="none" vector-effect="none" points="1045.97,126.333 1055,126.333 " />
<polyline fill="none" vector-effect="none" points="152,45 161.03,45 " />
<polyline fill="none" vector-effect="none" points="1045.97,45 1055,45 " />
</g>

<g fill="#d9d9d9" fill-opacity="1" stroke="#d9d9d9" stroke-opacity="1" stroke-width="1" stroke-linecap="square" stroke-linejoin="bevel" transform="matrix(0.731862,0,0,0.707124,26.3833,371.449)"
font-family="Helvetica" font-size="22" font-weight="400" font-style="normal" 
>
<text fill="#d9d9d9" fill-opacity="1" stroke="none" xml:space="preserve" x="0" y="0" font-family="Helvetica" font-size="22" font-weight="400" font-style="normal" 
 >-2</text>
</g>

<g fill="#d9d9d9" fill-opacity="1" stroke="#d9d9d9" stroke-opacity="1" stroke-width="1" stroke-linecap="square" stroke-linejoin="bevel" transform="matrix(0.731862,0,0,0.707124,31.5063,313.937)"
font-family="Helvetica" font-size="22" font-weight="400" font-style="normal" 
>
<text fill="#d9d9d9" fill-opacity="1" stroke="none" xml:space="preserve" x="0" y="0" font-family="Helvetica" font-size="22" font-weight="400" font-style="normal" 
 >0</text>
</g>

<g fill="#d9d9d9" fill-opacity="1" stroke="#d9d9d9" stroke-opacity="1" stroke-width="1" stroke-linecap="square" stroke-linejoin="bevel" transform="matrix(0.731862,0,0,0.707124,31.5063,256.424)"
font-family="Helvetica" font-size="22" font-weight="400" font-style="normal" 
>
<text fill="#d9d9d9" fill-opacity="1" stroke="none" xml:space="preserve" x="0" y="0" font-family="Helvetica" font-size="22" font-weight="400" font-style="normal" 
 >2</text>
</g>

<g fill="#d9d9d9" fill-opacity="1" stroke="#d9d9d9" stroke-opacity="1" stroke-width="1" stroke-linecap="square" stroke-linejoin="bevel" transform="matrix(0.731862,0,0,0.707124,31.5063,198.911)"
font-family="Helvetica" font-size="22" font-weight="400" font-style="normal" 
>
<text fill="#d9d9d9" fill-opacity="1" stroke="none" xml:space="preserve" x="0" y="0" font-family="Helvetica" font-size="22" font-weight="400" font-style="normal" 
 >4</text>
</g>

<g fill="#d9d9d9" fill-opacity="1" stroke="#d9d9d9" stroke-opacity="1" stroke-width="1" stroke-linecap="square" stroke-linejoin="bevel" transform="matrix(0.731862,0,0,0.707124,31.5063,141.399)"
font-family="Helvetica" font-size="22" font-weight="400" font-style="normal" 
>
<text fill="#d9d9d9" fill-opacity="1" stroke="none" xml:space="preserve" x="0" y="0" font-family="Helvetica" font-size="22" font-weight="400" font-style="normal" 
 >6</text>
</g>

<g fill="#d9d9d9" fill-opacity="1" stroke="#d9d9d9" stroke-opacity="1" stroke-width="1" stroke-linecap="square" stroke-linejoin="bevel" transform="matrix(0.731862,0,0,0.707124,31.5063,83.8858)"
font-family="Helvetica" font-size="22" font-weight="400" font-style="normal" 
>
<text fill="#d9d9d9" fill-opacity="1" stroke="none" xml:space="preserve" x="0" y="0" font-family="Helvetica" font-size="22" font-weight="400" font-style="normal" 
 >8</text>
</g>

<g fill="#d9d9d9" fill-opacity="1" stroke="#d9d9d9" stroke-opacity="1" stroke-width="1" stroke-linecap="square" stroke-linejoin="bevel" transform="matrix(0.731862,0,0,0.707124,22.724,26.3731)"
font-family="Helvetica" font-size="22" font-weight="400" font-style="normal" 
>
<text fill="#d9d9d9" fill-opacity="1" stroke="none" xml:space="preserve" x="0" y="0" font-family="Helvetica" font-size="22" font-weight="400" font-style="normal" 
 >10</text>
</g>

<g fill="#d9d9d9" fill-opacity="1" stroke="#d9d9d9" stroke-opacity="1" stroke-width="1" stroke-linecap="square" stroke-linejoin="bevel" transform="matrix(0.731862,0,0,0.707124,270.972,13.5211)"
font-family="Helvetica" font-size="24" font-weight="700" font-style="normal" 
>
<text fill="#d9d9d9" fill-opacity="1" stroke="none" xml:space="preserve" x="0" y="0" font-family="Helvetica" font-size="24" font-weight="700" font-style="normal" 
 >24-month decomposition</text>
</g>

<g fill="none" stroke="#268cdd" stroke-opacity="1" stroke-width="2" stroke-linecap="butt" stroke-linejoin="round" transform="matrix(0.731862,0,0,0.707124,-65.6849,-10.7509)"
font-family="Helvetica" font-size="24" font-weight="700" font-style="normal" 
>
<polyline fill="none" vector-effect="none" points="152,195.039 155.076,196.263 157.855,196.33 160.931,183 163.908,151.118 166.984,142.769 169.961,154.053 173.037,149.521 176.113,135.082 179.09,107.75 182.166,137.539 185.143,139.194 188.219,139.255 191.295,161.251 194.173,166.938 197.249,155.088 200.226,140.566 203.302,126.933 206.279,132.541 209.355,117.542 212.432,104.312 215.408,114.756 218.485,122.202 221.462,98.7924 224.538,85.0951 227.614,88.5385 230.392,70.9076 233.468,62.6382 236.445,78.4859 239.522,99.3968 242.498,128.01 245.575,151.016 248.651,119.197 251.628,114.758 254.704,136.601 257.681,143.48 260.757,135.648 263.833,120.371 266.612,112.508 269.688,107.094 272.665,93.5784 275.741,120.617 278.718,122.043 281.794,137.316 284.87,125.733 287.847,132.09 290.923,142.485 293.9,147.377 296.976,164.827 300.052,176.01 302.831,164.047 305.907,169.697 308.884,177.15 311.96,176.814 314.937,168.702 318.013,175.957 321.089,195.996 324.066,208.456 327.142,222.022 330.119,234.394 333.195,256.025 336.272,241.901 339.149,231.114 342.225,226.169 345.202,236.356 348.278,238.475 351.255,254.78 354.332,271.572 357.408,282.107 360.385,299.343 363.461,267.58 366.438,254.008 369.514,268.455 372.59,281.224 375.368,294.65 378.445,290.844 381.422,298.969 384.498,283.508 387.475,289.317 390.551,282.16 393.627,295.182 396.604,295.499 399.68,286.383 402.657,282.257 405.733,280.58 408.809,283.265 411.588,257.417 414.664,239.877 417.641,216.997 420.717,209.866 423.694,203.36 426.77,209.257 429.846,205.807 432.823,186.851 435.899,174.466 438.876,152.846 441.952,143.285 445.028,158.061 447.807,179.576 450.883,179.207 453.86,187.042 456.936,222.141 459.913,217.424 462.989,212.418 466.065,219.243 469.042,217.2 472.118,228.272 475.095,236.176 478.172,241.668 481.248,252.521 484.125,238.987 487.202,218.747 490.178,208.573 493.255,201.222 496.232,204.036 499.308,206.651 502.384,196.024 505.361,208.438 508.437,219.122 511.414,226.014 514.49,211.403 517.566,213.556 520.345,207.801 523.421,193.717 526.398,199.936 529.474,201.996 532.451,208.741 535.527,215.481 538.603,212.435 541.58,219.975 544.656,224.056 547.633,218.33 550.709,225.659 553.785,234.876 556.564,225.956 559.64,227.202 562.617,225.913 565.693,228.886 568.67,230.316 571.746,229.479 574.822,249.667 577.799,278.887 580.875,271.026 583.852,268.498 586.928,265.294 590.005,261.706 592.783,240.075 595.859,247.961 598.836,245.957 601.912,227.504 604.889,226.794 607.965,223.878 611.042,220.065 614.018,219.644 617.095,216.192 620.072,208.486 623.148,200.216 626.224,185.883 629.102,189.791 632.178,191.015 635.155,182.794 638.231,184.981 641.208,193.719 644.284,198.036 647.36,206.253 650.337,209.584 653.413,213.183 656.39,221.714 659.466,251.913 662.542,264.443 665.321,270.403 668.397,278.954 671.374,277.756 674.45,277.382 677.427,279.385 680.503,294.678 683.579,302.186 686.556,335.545 689.632,348.737 692.609,335.618 695.685,320.98 698.762,326.489 701.54,323.63 704.616,301.097 707.593,321.815 710.669,322.82 713.646,336.929 716.722,364.291 719.798,371.878 722.775,378.814 725.852,379.438 728.828,366.618 731.905,378.509 734.981,381.522 737.759,389.558 740.835,389.728 743.812,390.177 746.888,397.197 749.865,397.617 752.942,375.654 756.018,368.71 758.995,392.148 762.071,376.457 765.048,366.1 768.124,373.362 771.2,377.08 774.078,384.085 777.154,384.904 780.131,356.306 783.207,345.593 786.184,344.159 789.26,343.826 792.336,354.638 795.313,345.095 798.389,345.899 801.366,329.008 804.442,327.013 807.518,319.136 810.297,305.982 813.373,299.301 816.35,305.106 819.426,310.378 822.403,299.849 825.479,287.472 828.555,298.923 831.532,283.706 834.608,271.872 837.585,272.035 840.662,275.969 843.738,266.54 846.516,261.997 849.592,256.049 852.569,252.278 855.645,248.616 858.622,243.031 861.698,251.312 864.775,259.743 867.752,263.846 870.828,264.939 873.805,270.211 876.881,258.435 879.957,252.65 882.735,265.381 885.812,265.132 888.788,264.028 891.865,251.096 894.842,255.576 897.918,267.295 900.994,282.86 903.971,289.368 907.047,298.697 910.024,328.195 913.1,336.142 916.176,367.402 919.054,385.732 922.13,379.477 925.107,359.129 928.183,351.164 931.16,346.223 934.236,351.624 937.312,360.355 940.289,377.451 943.365,394.311 946.342,424.852 949.418,423.486 952.495,420.716 955.273,416.615 958.349,419.957 961.326,414.322 964.402,411.828 967.379,409.863 970.455,406.519 973.532,414.801 976.508,416.713 979.585,414.132 982.562,425.053 985.638,405.24 988.714,417.29 991.492,419.497 994.568,409.279 997.545,413.08 1000.62,419.46 1003.6,426.264 1006.67,430.405 1009.75,431.771 1012.73,435.881 1015.8,439.914 1018.78,429.749 1021.86,427.447 1024.93,426.956 1027.71,425.786 1030.79,419.627 1033.76,428.112 1036.84,434.517 1039.82,430.662 1042.89,437.782 1045.97,444.606 1048.95,440.064 1052.02,442.199 1055,441.192 " />
</g>

<g fill="none" stroke="#f57729" stroke-opacity="1" stroke-width="2" stroke-linecap="butt" stroke-linejoin="round" transform="matrix(0.731862,0,0,0.707124,-65.6849,-10.7509)"
font-family="Helvetica" font-size="24" font-weight="700" font-style="normal" 
>
<polyline fill="none" vector-effect="none" points="152,190.382 155.076,190.958 157.855,193.26 160.931,178.858 163.908,147.49 166.984,140.269 169.961,150.254 173.037,143.971 176.113,128.567 179.09,100.996 182.166,132.433 185.143,131.653 188.219,131.549 191.295,152.177 194.173,157.606 197.249,145.232 200.226,129.453 203.302,119.644 206.279,125.186 209.355,107.824 212.432,96.9244 215.408,109.279 218.485,116.055 221.462,94.5741 224.538,83.2293 227.614,88.9774 230.392,70.3552 233.468,65.1287 236.445,77.8759 239.522,99.5328 242.498,126.36 245.575,147.535 248.651,120.663 251.628,116.264 254.704,136.859 257.681,144.601 260.757,136.706 263.833,121.59 266.612,114.389 269.688,109.61 272.665,95.5367 275.741,122.464 278.718,122.323 281.794,135.236 284.87,118.925 287.847,125.615 290.923,135.226 293.9,142.668 296.976,159.374 300.052,169.775 302.831,161.343 305.907,168.022 308.884,173.699 311.96,172.001 314.937,165.637 318.013,171.172 321.089,188.592 324.066,202.253 327.142,210.226 330.119,221.576 333.195,245.079 336.272,232.518 339.149,225.15 342.225,224.189 345.202,230.405 348.278,232.378 351.255,241.901 354.332,260.071 357.408,265.727 360.385,281.548 363.461,257.866 366.438,248.841 369.514,262.428 372.59,272.266 375.368,284.549 378.445,280.636 381.422,287.745 384.498,277.043 387.475,283.944 390.551,280.851 393.627,292.802 396.604,294.854 399.68,286.562 402.657,280.744 405.733,279.401 408.809,283.045 411.588,256.093 414.664,239.215 417.641,219.108 420.717,211.678 423.694,203.424 426.77,210.954 429.846,207.331 432.823,188.053 435.899,176.03 438.876,157.724 441.952,148.911 445.028,164.271 447.807,183.48 450.883,182.964 453.86,190.873 456.936,223.833 459.913,221.117 462.989,215.206 466.065,223.671 469.042,222.562 472.118,232.726 475.095,240.878 478.172,247.209 481.248,254.719 484.125,240.779 487.202,223.601 490.178,212.283 493.255,207.238 496.232,210.216 499.308,211.817 502.384,201.128 505.361,212.897 508.437,223.85 511.414,232.046 514.49,217.22 517.566,219.115 520.345,214.509 523.421,199.581 526.398,206.017 529.474,208.717 532.451,215.802 535.527,222.652 538.603,219.077 541.58,226.785 544.656,232.184 547.633,228.093 550.709,236.323 553.785,242.089 556.564,234.37 559.64,237.261 562.617,235.039 565.693,238.457 568.67,241.328 571.746,241 574.822,258.65 577.799,286.043 580.875,275.607 583.852,276.478 586.928,273.681 590.005,269.269 592.783,248.529 595.859,254.46 598.836,253.008 601.912,236.543 604.889,232.685 607.965,230.658 611.042,224.426 614.018,223.261 617.095,220.945 620.072,212.297 623.148,203.612 626.224,195.98 629.102,200.282 632.178,203.654 635.155,196.041 638.231,195.468 641.208,203.145 644.284,207.66 647.36,215.513 650.337,213.599 653.413,218.247 656.39,227.606 659.466,256.048 662.542,268.935 665.321,274.623 668.397,280.644 671.374,280.075 674.45,281.862 677.427,282.763 680.503,297.821 683.579,305.765 686.556,334.129 689.632,349.731 692.609,336.984 695.685,324.535 698.762,329.856 701.54,326.015 704.616,306.287 707.593,326.443 710.669,325.279 713.646,338.266 716.722,357.435 719.798,366.861 722.775,372.612 725.852,371.738 728.828,363.561 731.905,372.15 734.981,377.004 737.759,384.368 740.835,383.699 743.812,384.4 746.888,392.388 749.865,392.683 752.942,367.422 756.018,363.897 758.995,385.185 762.071,371.604 765.048,364.099 768.124,369.858 771.2,374.76 774.078,381.046 777.154,381.486 780.131,356.569 783.207,345.844 786.184,344.987 789.26,345.745 792.336,355.421 795.313,347.154 798.389,347.797 801.366,332.667 804.442,332.392 807.518,328.525 810.297,316.82 813.373,310.755 816.35,317.102 819.426,323.692 822.403,314.001 825.479,301.973 828.555,312.762 831.532,296.316 834.608,284.597 837.585,284.558 840.662,289.441 843.738,280.349 846.516,276.817 849.592,268.368 852.569,261.439 855.645,258.575 858.622,253.615 861.698,261.491 864.775,269.847 867.752,274.238 870.828,275.703 873.805,281.193 876.881,270.091 879.957,264.711 882.735,275.733 885.812,273.604 888.788,273.293 891.865,262.646 894.842,264.816 897.918,274.567 900.994,288.93 903.971,294.325 907.047,303.688 910.024,328.699 913.1,334.13 916.176,363.998 919.054,378.74 922.13,374.1 925.107,361.512 928.183,353.77 931.16,348.712 934.236,352.888 937.312,360.64 940.289,371.035 943.365,370.722 946.342,411.312 949.418,421.288 952.495,413.566 955.273,407.599 958.349,417.28 961.326,408.116 964.402,400.198 967.379,403.534 970.455,403.03 973.532,409.685 976.508,413.96 979.585,409.793 982.562,417.212 985.638,399.294 988.714,409.02 991.492,410.302 994.568,402.641 997.545,407.543 1000.62,414.781 1003.6,423.19 1006.67,423.598 1009.75,430.883 1012.73,432.721 1015.8,431.641 1018.78,423.363 1021.86,420.043 1024.93,416.491 1027.71,419.136 1030.79,415.933 1033.76,420.749 1036.84,427.677 1039.82,421.526 1042.89,429.281 1045.97,443.784 1048.95,446.151 1052.02,445.844 1055,443.786 " />
</g>

<g fill="none" stroke="#ffe864" stroke-opacity="1" stroke-width="2" stroke-linecap="butt" stroke-linejoin="round" transform="matrix(0.731862,0,0,0.707124,-65.6849,-10.7509)"
font-family="Helvetica" font-size="24" font-weight="700" font-style="normal" 
>
<polyline fill="none" vector-effect="none" points="152,225.396 155.076,231.401 157.855,226.439 160.931,219.176 163.908,193.419 166.984,176.062 169.961,200.38 173.037,198.945 176.113,185.145 179.09,160.783 182.166,197.644 185.143,190.96 188.219,181.188 191.295,192.155 194.173,192.589 197.249,193.661 200.226,168.253 203.302,163.242 206.279,163.221 209.355,139.786 212.432,139.78 215.408,149.618 218.485,153.669 221.462,137.827 224.538,136.644 227.614,138.566 230.392,118.652 233.468,110.97 236.445,123.191 239.522,149.712 242.498,179.313 245.575,194.759 248.651,164.173 251.628,164.332 254.704,188.967 257.681,197.105 260.757,184.174 263.833,172.009 266.612,161.83 269.688,154.304 272.665,142.974 275.741,171.545 278.718,171.754 281.794,184.013 284.87,177.625 287.847,183.497 290.923,190.206 293.9,192.796 296.976,211.039 300.052,222.019 302.831,213.601 305.907,222.971 308.884,228.776 311.96,228.802 314.937,230.924 318.013,235.141 321.089,253.524 324.066,259.791 327.142,269.498 330.119,280.665 333.195,302.203 336.272,304.013 339.149,298.71 342.225,295.311 345.202,309.885 348.278,303.834 351.255,307.845 354.332,321.019 357.408,318.882 360.385,329.445 363.461,328.545 366.438,314.605 369.514,338.202 372.59,330.841 375.368,341.546 378.445,335.16 381.422,344.186 384.498,318.365 387.475,318.497 390.551,316.952 393.627,323.562 396.604,319.281 399.68,315.278 402.657,314.694 405.733,310.467 408.809,309.792 411.588,289.679 414.664,282.6 417.641,251.134 420.717,234.372 423.694,235.258 426.77,239.371 429.846,238.038 432.823,219.518 435.899,211.646 438.876,180.477 441.952,172.298 445.028,186.129 447.807,206.649 450.883,206.338 453.86,214.631 456.936,248.807 459.913,235.748 462.989,239.177 466.065,241.209 469.042,237.531 472.118,253.774 475.095,259.432 478.172,264.324 481.248,278.512 484.125,259.332 487.202,238.636 490.178,227.576 493.255,225.326 496.232,225.462 499.308,229.634 502.384,218.303 505.361,233.231 508.437,245.549 511.414,246.807 514.49,237.401 517.566,240.912 520.345,234.394 523.421,218.313 526.398,221.406 529.474,220.703 532.451,232.606 535.527,239.636 538.603,235.712 541.58,242.83 544.656,243.346 547.633,235.153 550.709,244.273 553.785,252.094 556.564,245.893 559.64,244.164 562.617,239.378 565.693,247.492 568.67,244.531 571.746,244.65 574.822,261.2 577.799,273.349 580.875,271.87 583.852,272.678 586.928,273.416 590.005,260.932 592.783,248.069 595.859,255.053 598.836,252.063 601.912,246.661 604.889,235.777 607.965,240.729 611.042,235.731 614.018,228.913 617.095,227.486 620.072,216.644 623.148,215.814 626.224,206.952 629.102,216.879 632.178,204.909 635.155,203.886 638.231,203.298 641.208,208.258 644.284,221.159 647.36,226.191 650.337,225.985 653.413,237.603 656.39,239.747 659.466,267.895 662.542,291.046 665.321,293.403 668.397,298.685 671.374,305.65 674.45,304.692 677.427,305.593 680.503,327.325 683.579,332.79 686.556,368.678 689.632,379.202 692.609,369.784 695.685,361.392 698.762,365.574 701.54,356.003 704.616,333.293 707.593,355.213 710.669,345.78 713.646,366.32 716.722,398.339 719.798,390.974 722.775,388.567 725.852,395.926 728.828,387.685 731.905,398.101 734.981,406.795 737.759,407.614 740.835,411.773 743.812,418.371 746.888,404.048 749.865,409.133 752.942,403.639 756.018,404.775 758.995,417.021 762.071,401.521 765.048,388.023 768.124,399.118 771.2,400.642 774.078,406.503 777.154,399.925 780.131,375.005 783.207,363.647 786.184,358.154 789.26,356.025 792.336,361.58 795.313,348.915 798.389,350.383 801.366,330.887 804.442,323.746 807.518,316.03 810.297,305.126 813.373,294.75 816.35,297.964 819.426,298.281 822.403,291.224 825.479,282.455 828.555,295.79 831.532,286.877 834.608,270.208 837.585,271.578 840.662,278.926 843.738,273.406 846.516,271.349 849.592,262.837 852.569,261.746 855.645,256.242 858.622,249.412 861.698,260.058 864.775,272.95 867.752,274.633 870.828,275.474 873.805,282.676 876.881,265.168 879.957,261.688 882.735,273.545 885.812,274.638 888.788,269.838 891.865,257.17 894.842,267.34 897.918,282.154 900.994,287.655 903.971,299.35 907.047,307.218 910.024,341.425 913.1,350.947 916.176,375.1 919.054,402.768 922.13,371.598 925.107,364.557 928.183,361.731 931.16,354.617 934.236,357.304 937.312,361.653 940.289,396.669 943.365,421.168 946.342,427.995 949.418,426.582 952.495,419.381 955.273,415.373 958.349,412.561 961.326,413.34 964.402,431.812 967.379,436.55 970.455,425.129 973.532,436.903 976.508,433.646 979.585,430.734 982.562,440.079 985.638,425.772 988.714,441.046 991.492,439.815 994.568,436.965 997.545,440.793 1000.62,441.155 1003.6,440.763 1006.67,433.332 1009.75,426.677 1012.73,427.134 1015.8,424.16 1018.78,425.688 1021.86,450.75 1024.93,441.643 1027.71,452.682 1030.79,443.79 1033.76,443.128 1036.84,433.789 1039.82,433.988 1042.89,422.189 1045.97,420.755 1048.95,421.129 1052.02,422.66 1055,423.196 " />
</g>

<g fill="none" stroke="#c05cfb" stroke-opacity="1" stroke-width="2" stroke-linecap="butt" stroke-linejoin="round" transform="matrix(0.731862,0,0,0.707124,-65.6849,-10.7509)"
font-family="Helvetica" font-size="24" font-weight="700" font-style="normal" 
>
<polyline fill="none" vector-effect="none" points="152,416.652 155.076,411.223 157.855,418.487 160.931,411.348 163.908,405.738 166.984,415.874 169.961,401.541 173.037,396.693 176.113,395.088 179.09,391.879 182.166,386.456 185.143,392.36 188.219,402.027 191.295,411.689 194.173,416.684 197.249,403.238 200.226,412.867 203.302,408.068 206.279,413.632 209.355,419.705 212.432,408.811 215.408,411.327 218.485,414.052 221.462,408.414 224.538,398.252 227.614,402.078 230.392,403.369 233.468,405.825 236.445,406.352 239.522,401.487 242.498,398.713 245.575,404.443 248.651,408.157 251.628,403.599 254.704,399.559 257.681,399.163 260.757,404.199 263.833,401.248 266.612,404.226 269.688,406.972 272.665,404.23 275.741,402.585 278.718,402.235 281.794,402.889 284.87,392.967 287.847,393.785 290.923,396.686 293.9,401.539 296.976,400.001 300.052,399.423 302.831,399.409 305.907,396.717 308.884,396.59 311.96,394.865 314.937,386.379 318.013,387.698 321.089,386.735 324.066,394.128 327.142,392.395 330.119,392.577 333.195,394.543 336.272,380.172 339.149,378.106 342.225,380.544 345.202,372.187 348.278,380.21 351.255,385.723 354.332,390.719 357.408,398.512 360.385,403.77 363.461,380.988 366.438,385.903 369.514,375.893 372.59,393.092 375.368,394.67 378.445,397.142 381.422,395.226 384.498,410.344 387.475,417.114 390.551,415.565 393.627,420.907 396.604,427.24 399.68,422.95 402.657,417.717 405.733,420.6 408.809,424.92 411.588,418.081 414.664,408.282 417.641,419.641 420.717,428.973 423.694,419.832 426.77,423.25 429.846,420.959 432.823,420.202 435.899,416.051 438.876,428.914 441.952,428.279 445.028,429.809 447.807,428.497 450.883,428.293 453.86,427.909 456.936,426.693 459.913,437.036 462.989,427.696 466.065,434.129 469.042,436.698 472.118,430.619 475.095,433.113 478.172,434.552 481.248,427.874 484.125,433.113 487.202,436.632 490.178,436.374 493.255,433.578 496.232,436.421 499.308,433.85 502.384,434.491 505.361,431.333 508.437,429.968 511.414,436.905 514.49,431.485 517.566,429.869 520.345,431.782 523.421,432.934 526.398,436.278 529.474,439.68 532.451,434.863 535.527,434.682 538.603,435.031 541.58,435.623 544.656,440.505 547.633,444.607 550.709,443.717 553.785,441.662 556.564,440.144 559.64,444.763 562.617,447.328 565.693,442.632 568.67,448.463 571.746,448.017 574.822,449.117 577.799,464.36 580.875,455.403 583.852,455.466 586.928,451.931 590.005,460.004 592.783,452.127 595.859,451.074 598.836,452.612 601.912,441.548 604.889,448.574 607.965,441.596 611.042,440.361 614.018,446.014 617.095,445.126 620.072,447.32 623.148,439.464 626.224,440.695 629.102,435.069 632.178,450.411 635.155,443.822 638.231,443.837 641.208,446.554 644.284,438.167 647.36,440.989 650.337,439.28 653.413,432.311 656.39,439.526 659.466,439.82 662.542,429.556 665.321,432.886 668.397,433.626 671.374,426.092 674.45,428.837 677.427,428.837 680.503,422.163 683.579,424.642 686.556,417.118 689.632,422.196 692.609,418.867 695.685,414.81 698.762,415.949 701.54,421.679 704.616,424.661 707.593,422.897 710.669,431.165 713.646,423.612 716.722,410.762 719.798,427.554 722.775,435.711 725.852,427.479 728.828,427.542 731.905,425.715 734.981,421.875 737.759,428.421 740.835,423.593 743.812,417.695 746.888,440.007 749.865,435.217 752.942,415.449 756.018,410.789 758.995,419.83 762.071,421.75 765.048,427.743 768.124,422.406 771.2,425.785 774.078,426.21 777.154,433.228 780.131,433.23 783.207,433.863 786.184,438.5 789.26,441.386 792.336,445.508 795.313,449.905 798.389,449.081 801.366,453.447 804.442,460.312 807.518,464.162 810.297,463.36 813.373,467.672 816.35,470.804 819.426,477.078 822.403,474.444 825.479,471.184 828.555,468.639 831.532,461.106 834.608,466.055 837.585,464.647 840.662,462.182 843.738,458.61 846.516,457.135 849.592,457.198 852.569,451.36 855.645,453.999 858.622,455.869 861.698,453.099 864.775,448.564 867.752,451.272 870.828,451.895 873.805,450.184 876.881,456.59 879.957,454.69 882.735,453.854 885.812,450.634 888.788,455.122 891.865,457.143 894.842,449.143 897.918,444.08 900.994,452.942 903.971,446.642 907.047,448.137 910.024,438.941 913.1,434.849 916.176,440.566 919.054,427.638 922.13,454.168 925.107,448.622 928.183,443.705 931.16,445.762 934.236,447.25 937.312,450.654 940.289,426.032 943.365,401.221 946.342,434.983 949.418,446.372 952.495,445.852 955.273,443.893 958.349,456.386 961.326,446.443 964.402,420.053 967.379,418.651 970.455,429.567 973.532,424.449 976.508,431.98 979.585,430.725 982.562,428.8 985.638,425.188 988.714,419.64 991.492,422.154 994.568,417.342 997.545,418.417 1000.62,425.293 1003.6,434.094 1006.67,441.933 1009.75,455.873 1012.73,457.253 1015.8,459.148 1018.78,449.342 1021.86,420.96 1024.93,426.515 1027.71,418.121 1030.79,423.809 1033.76,429.288 1036.84,445.555 1039.82,439.204 1042.89,458.759 1045.97,474.695 1048.95,476.688 1052.02,474.85 1055,472.257 " />
</g>

<g fill="none" stroke="#49db40" stroke-opacity="1" stroke-width="2" stroke-linecap="butt" stroke-linejoin="round" transform="matrix(0.731862,0,0,0.707124,-65.6849,-10.7509)"
font-family="Helvetica" font-size="24" font-weight="700" font-style="normal" 
>
<polyline fill="none" vector-effect="none" points="152,451.879 155.076,451.879 157.855,451.879 160.931,451.879 163.908,451.879 166.984,451.879 169.961,451.879 173.037,451.879 176.113,451.879 179.09,451.879 182.166,451.879 185.143,451.879 188.219,451.879 191.295,451.879 194.173,451.879 197.249,451.879 200.226,451.879 203.302,451.879 206.279,451.879 209.355,451.879 212.432,451.879 215.408,451.879 218.485,451.879 221.462,451.879 224.538,451.879 227.614,451.879 230.392,451.879 233.468,451.879 236.445,451.879 239.522,451.879 242.498,451.879 245.575,451.879 248.651,451.879 251.628,451.879 254.704,451.879 257.681,451.879 260.757,451.879 263.833,451.879 266.612,451.879 269.688,451.879 272.665,451.879 275.741,451.879 278.718,451.879 281.794,451.879 284.87,451.879 287.847,451.879 290.923,451.879 293.9,451.879 296.976,451.879 300.052,451.879 302.831,451.879 305.907,451.879 308.884,451.879 311.96,451.879 314.937,451.879 318.013,451.879 321.089,451.879 324.066,451.879 327.142,451.879 330.119,451.879 333.195,451.879 336.272,451.879 339.149,451.879 342.225,451.879 345.202,451.879 348.278,451.879 351.255,451.879 354.332,451.879 357.408,451.879 360.385,451.879 363.461,451.879 366.438,451.879 369.514,451.879 372.59,451.879 375.368,451.879 378.445,451.879 381.422,451.879 384.498,451.879 387.475,451.879 390.551,451.879 393.627,451.879 396.604,451.879 399.68,451.879 402.657,451.879 405.733,451.879 408.809,451.879 411.588,451.879 414.664,451.879 417.641,451.879 420.717,451.879 423.694,451.879 426.77,451.879 429.846,451.879 432.823,451.879 435.899,451.879 438.876,451.879 441.952,451.879 445.028,451.879 447.807,451.879 450.883,451.879 453.86,451.879 456.936,451.879 459.913,451.879 462.989,451.879 466.065,451.879 469.042,451.879 472.118,451.879 475.095,451.879 478.172,451.879 481.248,451.879 484.125,451.879 487.202,451.879 490.178,451.879 493.255,451.879 496.232,451.879 499.308,451.879 502.384,451.879 505.361,451.879 508.437,451.879 511.414,451.879 514.49,451.879 517.566,451.879 520.345,451.879 523.421,451.879 526.398,451.879 529.474,451.879 532.451,451.879 535.527,451.879 538.603,451.879 541.58,451.879 544.656,451.879 547.633,451.879 550.709,451.879 553.785,451.879 556.564,451.879 559.64,451.879 562.617,451.879 565.693,451.879 568.67,451.879 571.746,451.879 574.822,451.879 577.799,451.879 580.875,451.879 583.852,451.879 586.928,451.879 590.005,451.879 592.783,451.879 595.859,451.879 598.836,451.879 601.912,451.879 604.889,451.879 607.965,451.879 611.042,451.879 614.018,451.879 617.095,451.879 620.072,451.879 623.148,451.879 626.224,451.879 629.102,451.879 632.178,451.879 635.155,451.879 638.231,451.879 641.208,451.879 644.284,451.879 647.36,451.879 650.337,451.879 653.413,451.879 656.39,451.879 659.466,451.879 662.542,451.879 665.321,451.879 668.397,451.879 671.374,451.879 674.45,451.879 677.427,451.879 680.503,451.879 683.579,451.879 686.556,451.879 689.632,451.879 692.609,451.879 695.685,451.879 698.762,451.879 701.54,451.879 704.616,451.879 707.593,451.879 710.669,451.879 713.646,451.879 716.722,451.879 719.798,451.879 722.775,451.879 725.852,451.879 728.828,451.879 731.905,451.879 734.981,451.879 737.759,451.879 740.835,451.879 743.812,451.879 746.888,451.879 749.865,451.879 752.942,451.879 756.018,451.879 758.995,451.879 762.071,451.879 765.048,451.879 768.124,451.879 771.2,451.879 774.078,451.879 777.154,451.879 780.131,451.879 783.207,451.879 786.184,451.879 789.26,451.879 792.336,451.879 795.313,451.879 798.389,451.879 801.366,451.879 804.442,451.879 807.518,451.879 810.297,451.879 813.373,451.879 816.35,451.879 819.426,451.879 822.403,451.879 825.479,451.879 828.555,451.879 831.532,451.879 834.608,451.879 837.585,451.879 840.662,451.879 843.738,451.879 846.516,451.879 849.592,451.879 852.569,451.879 855.645,451.879 858.622,451.879 861.698,451.879 864.775,451.879 867.752,451.879 870.828,451.879 873.805,451.879 876.881,451.879 879.957,451.879 882.735,451.879 885.812,451.879 888.788,451.879 891.865,451.879 894.842,451.879 897.918,451.879 900.994,451.879 903.971,451.879 907.047,451.879 910.024,451.879 913.1,451.879 916.176,451.879 919.054,451.879 922.13,451.879 925.107,451.879 928.183,451.879 931.16,451.879 934.236,451.879 937.312,451.879 940.289,451.879 943.365,451.879 946.342,451.879 949.418,451.879 952.495,451.879 955.273,451.879 958.349,451.879 961.326,451.879 964.402,451.879 967.379,451.879 970.455,451.879 973.532,451.879 976.508,451.879 979.585,451.879 982.562,451.879 985.638,451.879 988.714,451.879 991.492,451.879 994.568,451.879 997.545,451.879 1000.62,451.879 1003.6,451.879 1006.67,451.879 1009.75,451.879 1012.73,451.879 1015.8,451.879 1018.78,451.879 1021.86,451.879 1024.93,451.879 1027.71,451.879 1030.79,451.879 1033.76,451.879 1036.84,451.879 1039.82,451.879 1042.89,451.879 1045.97,451.879 1048.95,451.879 1052.02,451.879 1055,451.879 " />
</g>

<g fill="#121212" fill-opacity="1" stroke="none" transform="matrix(7.31862e-05,0,0,7.07124e-05,-65.6849,-10.7509)"
font-family="Helvetica" font-size="24" font-weight="700" font-style="normal" 
>
<path vector-effect="none" fill-rule="evenodd" d="M7.94e+06,560000 L7.94e+06,1.72e+06 L1.044e+07,1.72e+06 L1.044e+07,560000 L7.94e+06,560000"/>
</g>

<g fill="#268cdd" fill-opacity="1" stroke="#268cdd" stroke-opacity="1" stroke-width="2" stroke-linecap="butt" stroke-linejoin="round" transform="matrix(0.731862,0,0,0.707124,-65.6849,-10.7509)"
font-family="Helvetica" font-size="24" font-weight="700" font-style="normal" 
>
<polyline fill="none" vector-effect="none" points="798,69 838,69 " />
</g>

<g fill="#f57729" fill-opacity="1" stroke="#f57729" stroke-opacity="1" stroke-width="2" stroke-linecap="butt" stroke-linejoin="round" transform="matrix(0.731862,0,0,0.707124,-65.6849,-10.7509)"
font-family="Helvetica" font-size="24" font-weight="700" font-style="normal" 
>
<polyline fill="none" vector-effect="none" points="798,91.5 838,91.5 " />
</g>

<g fill="#ffe864" fill-opacity="1" stroke="#ffe864" stroke-opacity="1" stroke-width="2" stroke-linecap="butt" stroke-linejoin="round" transform="matrix(0.731862,0,0,0.707124,-65.6849,-10.7509)"
font-family="Helvetica" font-size="24" font-weight="700" font-style="normal" 
>
<polyline fill="none" vector-effect="none" points="798,114 838,114 " />
</g>

<g fill="#c05cfb" fill-opacity="1" stroke="#c05cfb" stroke-opacity="1" stroke-width="2" stroke-linecap="butt" stroke-linejoin="round" transform="matrix(0.731862,0,0,0.707124,-65.6849,-10.7509)"
font-family="Helvetica" font-size="24" font-weight="700" font-style="normal" 
>
<polyline fill="none" vector-effect="none" points="798,136.5 838,136.5 " />
</g>

<g fill="#49db40" fill-opacity="1" stroke="#49db40" stroke-opacity="1" stroke-width="2" stroke-linecap="butt" stroke-linejoin="round" transform="matrix(0.731862,0,0,0.707124,-65.6849,-10.7509)"
font-family="Helvetica" font-size="24" font-weight="700" font-style="normal" 
>
<polyline fill="none" vector-effect="none" points="798,159 838,159 " />
</g>

<g fill="#d9d9d9" fill-opacity="1" stroke="#d9d9d9" stroke-opacity="1" stroke-width="1" stroke-linecap="square" stroke-linejoin="bevel" transform="matrix(0.731862,0,0,0.707124,549.811,42.9905)"
font-family="Helvetica" font-size="20" font-weight="400" font-style="normal" 
>
<text fill="#d9d9d9" fill-opacity="1" stroke="none" xml:space="preserve" x="0" y="0" font-family="Helvetica" font-size="20" font-weight="400" font-style="normal" 
 >Actual</text>
</g>

<g fill="#d9d9d9" fill-opacity="1" stroke="#d9d9d9" stroke-opacity="1" stroke-width="1" stroke-linecap="square" stroke-linejoin="bevel" transform="matrix(0.731862,0,0,0.707124,549.811,58.9008)"
font-family="Helvetica" font-size="20" font-weight="400" font-style="normal" 
>
<text fill="#d9d9d9" fill-opacity="1" stroke="none" xml:space="preserve" x="0" y="0" font-family="Helvetica" font-size="20" font-weight="400" font-style="normal" 
 >Fitted</text>
</g>

<g fill="#d9d9d9" fill-opacity="1" stroke="#d9d9d9" stroke-opacity="1" stroke-width="1" stroke-linecap="square" stroke-linejoin="bevel" transform="matrix(0.731862,0,0,0.707124,549.811,74.811)"
font-family="Helvetica" font-size="20" font-weight="400" font-style="normal" 
>
<text fill="#d9d9d9" fill-opacity="1" stroke="none" xml:space="preserve" x="0" y="0" font-family="Helvetica" font-size="20" font-weight="400" font-style="normal" 
 >Risk-Neutral Expected</text>
</g>

<g fill="#d9d9d9" fill-opacity="1" stroke="#d9d9d9" stroke-opacity="1" stroke-width="1" stroke-linecap="square" stroke-linejoin="bevel" transform="matrix(0.731862,0,0,0.707124,549.811,90.7213)"
font-family="Helvetica" font-size="20" font-weight="400" font-style="normal" 
>
<text fill="#d9d9d9" fill-opacity="1" stroke="none" xml:space="preserve" x="0" y="0" font-family="Helvetica" font-size="20" font-weight="400" font-style="normal" 
 >Term Premium</text>
</g>

<g fill="#d9d9d9" fill-opacity="1" stroke="#d9d9d9" stroke-opacity="1" stroke-width="1" stroke-linecap="square" stroke-linejoin="bevel" transform="matrix(0.731862,0,0,0.707124,549.811,106.632)"
font-family="Helvetica" font-size="20" font-weight="400" font-style="normal" 
>
<text fill="#d9d9d9" fill-opacity="1" stroke="none" xml:space="preserve" x="0" y="0" font-family="Helvetica" font-size="20" font-weight="400" font-style="normal" 
 >Convexity</text>
</g>

<g fill="none" stroke="#d9d9d9" stroke-opacity="1" stroke-width="0.666667" stroke-linecap="butt" stroke-linejoin="miter" stroke-miterlimit="2" transform="matrix(0.731862,0,0,0.707124,-65.6849,-10.7509)"
font-family="Helvetica" font-size="20" font-weight="400" font-style="normal" 
>
<path vector-effect="none" fill-rule="evenodd" d="M794,172 L794,56 L1044,56 L1044,172 L794,172"/>
</g>
</g>
</svg>
